HIERARCHY
ROOT Hips
{
	OFFSET -3.958830 18.904000 13.208200
	CHANNELS 6 Xposition Yposition Zposition Zrotation Yrotation Xrotation 
	JOINT LHipJoint
	{
		OFFSET 0.000000 0.000000 0.000000
		CHANNELS 3 Zrotation Yrotation Xrotation
		JOINT LeftUpLeg
		{
			OFFSET 1.800000 -1.400000 0.085000
			CHANNELS 3 Zrotation Yrotation Xrotation
			JOINT LeftLeg
			{
				OFFSET 2.215000 -6.000000 0.000000
				CHANNELS 3 Zrotation Yrotation Xrotation
				JOINT LeftFoot
				{
					OFFSET 2.500000 -6.900000 0.000000
					CHANNELS 3 Zrotation Yrotation Xrotation
					JOINT LeftToeBase
					{
						OFFSET 0.200000 -0.500000 1.950000
						CHANNELS 3 Zrotation Yrotation Xrotation
						End Site
						{
							OFFSET 0.000000 0.000000 0.000000
						}
					}
				}
			}
		}
	}
	JOINT RHipJoint
	{
		OFFSET 0.000000 0.000000 0.000000
		CHANNELS 3 Zrotation Yrotation Xrotation
		JOINT RightUpLeg
		{
			OFFSET -1.800000 -1.400000 0.085000
			CHANNELS 3 Zrotation Yrotation Xrotation
			JOINT RightLeg
			{
				OFFSET -2.215000 -6.000000 0.000000
				CHANNELS 3 Zrotation Yrotation Xrotation
				JOINT RightFoot
				{
					OFFSET -2.500000 -6.900000 0.000000
					CHANNELS 3 Zrotation Yrotation Xrotation
					JOINT RightToeBase
					{
						OFFSET -0.200000 -0.500000 1.950000
						CHANNELS 3 Zrotation Yrotation Xrotation
						End Site
						{
							OFFSET 0.000000 0.000000 0.000000
						}
					}
				}
			}
		}
	}
	JOINT LowerBack
	{
		OFFSET 0.000000 0.000000 0.000000
		CHANNELS 3 Zrotation Yrotation Xrotation
		JOINT Spine
		{
			OFFSET -0.087000 1.940000 -0.288900
			CHANNELS 3 Zrotation Yrotation Xrotation
			JOINT Spine1
			{
				OFFSET 0.000000 1.950000 0.060000
				CHANNELS 3 Zrotation Yrotation Xrotation
				JOINT Neck
				{
					OFFSET 0.000000 0.000000 0.000000
					CHANNELS 3 Zrotation Yrotation Xrotation
					JOINT Neck1
					{
						OFFSET 0.000000 1.600000 0.340000
						CHANNELS 3 Zrotation Yrotation Xrotation
						JOINT Head
						{
							OFFSET 0.000000 1.667000 -0.240000
							CHANNELS 3 Zrotation Yrotation Xrotation
							End Site
							{
								OFFSET 0.000000 0.000000 0.000000
							}
						}
					}
				}
				JOINT LeftShoulder
				{
					OFFSET 0.000000 0.000000 0.000000
					CHANNELS 3 Zrotation Yrotation Xrotation
					JOINT LeftArm
					{
						OFFSET 2.700000 1.550000 -0.730000
						CHANNELS 3 Zrotation Yrotation Xrotation
						JOINT LeftForeArm
						{
							OFFSET 5.450000 0.000000 0.000000
							CHANNELS 3 Zrotation Yrotation Xrotation
							JOINT LeftHand
							{
								OFFSET 3.450000 0.000000 0.000000
								CHANNELS 3 Zrotation Yrotation Xrotation
								JOINT LeftHandIndex1
								{
									OFFSET 0.750000 0.000000 0.000000
									CHANNELS 3 Zrotation Yrotation Xrotation
									End Site
									{
										OFFSET 0.000000 0.000000 0.000000
									}
								}
							}
						}
					}
				}
				JOINT RightShoulder
				{
					OFFSET 0.000000 0.000000 0.000000
					CHANNELS 3 Zrotation Yrotation Xrotation
					JOINT RightArm
					{
						OFFSET -2.700000 1.550000 -0.730000
						CHANNELS 3 Zrotation Yrotation Xrotation
						JOINT RightForeArm
						{
							OFFSET -5.450000 0.000000 0.000000
							CHANNELS 3 Zrotation Yrotation Xrotation
							JOINT RightHand
							{
								OFFSET -3.450000 0.000000 0.000000
								CHANNELS 3 Zrotation Yrotation Xrotation
								JOINT RightHandIndex1
								{
									OFFSET -0.750000 0.000000 0.000000
									CHANNELS 3 Zrotation Yrotation Xrotation
									End Site
									{
										OFFSET 0.000000 0.000000 0.000000
									}
								}
							}
						}
					}
				}
			}
		}
	}
}
MOTION
Frames: 12
Frame Time: 0.016667
0.642510 19.016240 -1.143700 -6.367217 16.141771 -2.832340 -14.950025 12.514527 2.427872 -4.003373 -2.034699 -12.643402 1.114096 3.949927 23.362343 -1.360790 4.603199 2.945869 0.451010 0.303380 0.306380 18.715557 -9.832137 4.554376 -2.295335 8.530796 -46.958080 7.369090 -7.184001 30.909712 -0.616686 -3.977269 2.418398 0.418930 0.492810 0.589310 -4.847344 -0.835966 -7.923723 19.574071 -8.015053 22.550322 -7.817247 -4.770531 17.437569 4.818384 4.618419 -3.526109 6.345197 -3.097535 42.839287 -8.503420 0.016390 -27.506100 -12.722213 -1.922866 -2.134242 16.186790 4.240050 1.281232 16.518067 -34.386809 -3.907761 -4.111019 2.905515 0.990460 0.213230 0.344900 0.177290 5.513259 -5.543163 0.272918 -3.762680 -8.230345 -2.899395 -1.980346 58.509502 -0.489976 1.674670 -1.743674 -0.447970 0.685190 0.340250 -0.179970 
0.646970 18.977440 -1.153740 -6.071210 15.731867 -2.924194 -14.968376 12.610061 2.482433 -3.868957 -1.955655 -12.138114 0.475622 4.243608 23.828894 -1.311261 4.694721 2.866051 0.461990 0.325320 0.330420 18.670068 -9.895311 4.457303 -1.044850 8.277371 -45.918748 5.644028 -5.943697 27.467622 -0.533438 -3.227363 2.659869 0.403190 0.416800 0.609920 -4.752817 -0.920166 -7.912633 18.871167 -7.646096 23.268109 -7.451014 -4.449427 17.870754 4.915974 5.008175 -3.880902 7.009175 -3.396471 43.739644 -9.052390 0.319300 -29.076320 -12.738767 -2.583100 -1.903328 16.932251 4.027454 1.270174 15.355839 -32.169991 -3.386856 -4.077605 2.916516 1.009600 0.173300 0.397500 0.144250 5.358252 -5.016404 0.525941 -4.176327 -8.731056 -2.894815 -1.584515 56.412645 -0.190590 1.697167 -1.705195 -0.401060 0.637190 0.339940 -0.192080 
0.644340 18.864890 -1.155810 -4.988981 15.558588 -2.508224 -15.064691 12.818223 2.615043 -4.009971 -1.950352 -11.573196 -0.556793 4.680027 24.197239 -1.270806 4.889304 2.773290 0.437030 0.261470 0.357010 18.533494 -9.874771 4.279554 -0.733683 7.314456 -44.159221 5.441510 -4.633438 19.744493 -0.391282 -2.171791 3.009229 0.353940 0.375320 0.630980 -4.416193 -1.388092 -7.931183 16.017784 -6.640218 23.849496 -5.951727 -3.992678 18.163506 4.800105 5.636421 -4.501026 8.018885 -3.537611 44.948938 -9.505070 0.971860 -29.251700 -12.838791 -3.631325 -1.397054 18.380416 4.494956 1.570084 13.501753 -28.385657 -2.670908 -4.058901 2.928463 1.048770 0.147720 0.414970 0.103550 5.638307 -3.903653 0.838105 -6.181608 -9.783433 -2.371275 0.571263 53.220394 0.831631 1.732315 -1.687552 -0.398030 0.588320 0.361340 -0.224850 
0.660190 18.702320 -1.175390 -4.278538 14.850899 -1.554699 -15.146927 12.911107 2.678712 -4.240327 -2.016710 -11.640307 -1.289813 4.961689 24.474580 -1.217002 4.964487 2.698564 0.461550 0.278310 0.397780 18.449715 -9.713895 4.243360 -0.363631 6.865265 -43.282472 5.840142 -3.459031 11.336409 -0.310832 -1.407472 3.246666 0.344200 0.304000 0.655760 -4.150486 -1.814109 -7.986076 13.680151 -6.198573 23.748990 -4.877355 -4.067469 18.466146 4.511293 5.227225 -4.667528 7.192641 -2.673250 45.556593 -9.703700 1.685170 -29.590330 -12.854014 -3.860071 -0.895704 19.662506 5.978161 2.228149 11.862308 -22.997352 -2.040743 -4.013453 3.000705 1.044480 0.110920 0.444250 0.071700 6.178011 -2.924768 0.498704 -9.715012 -8.290409 -1.327267 2.850077 47.965605 1.831613 1.787012 -1.717186 -0.348840 0.512470 0.351420 -0.236060 
0.692080 18.540430 -1.214100 -3.938424 14.134100 -1.966113 -15.215234 13.037198 2.713447 -4.258101 -1.834341 -10.497171 -1.771106 5.202429 24.461335 -1.154159 5.091723 2.649439 0.406310 0.167670 0.373430 18.363816 -9.600704 4.221541 -0.089847 6.414769 -41.035542 6.662778 -2.578702 3.317343 -0.302251 -1.110229 3.355729 0.252050 0.276670 0.665230 -3.908444 -2.188737 -8.101805 12.124586 -6.000800 26.131417 -4.252342 -3.853010 18.669703 4.330419 4.989180 -5.781438 6.751298 -2.139213 46.431241 -8.491100 2.215300 -30.518660 -13.240446 -5.239008 0.555766 19.601964 8.235618 2.390980 13.982582 -16.492537 -2.056642 -3.990137 2.920078 1.120340 0.047790 0.462110 0.050750 6.719537 -0.855049 0.951758 -11.864307 -8.678071 -1.229743 2.061259 42.338331 1.694160 1.838720 -1.594388 -0.357370 0.468360 0.386080 -0.252830 
0.698770 18.370450 -1.256480 -2.881858 13.689636 -1.826763 -15.411573 13.194748 2.806366 -4.616843 -1.924595 -10.252247 -3.014624 5.774223 25.030768 -1.070762 5.300304 2.544808 0.372970 0.098380 0.390700 18.174750 -9.262379 4.259776 -0.351055 6.115198 -39.898112 7.016956 -1.894477 -2.874655 -0.341876 -1.079741 3.364768 0.179220 0.205770 0.671480 -3.314160 -2.997443 -8.256296 8.309475 -4.087827 28.259833 -1.156756 -2.683519 18.597715 4.088602 6.248149 -6.740149 8.729881 -3.767952 47.421507 -8.334900 2.015360 -32.012130 -13.831154 -7.085821 1.278577 21.865935 10.639756 3.071991 10.170086 -14.826935 -1.558520 -3.886034 2.979679 1.187210 -0.017720 0.503420 0.008910 7.582470 1.148343 1.748583 -14.348172 -11.673281 -0.715625 0.803051 37.928124 1.369449 1.899738 -1.501736 -0.346360 0.416840 0.401680 -0.283690 
0.702940 18.227070 -1.305210 -1.799827 12.626119 -2.558954 -15.586923 13.375080 2.870740 -4.861878 -1.806947 -9.270194 -4.169675 6.376632 25.547909 -0.932175 5.504574 2.462234 0.391340 0.131730 0.402920 18.010878 -8.949571 4.267890 -0.615476 5.849574 -38.378607 7.500477 -1.406088 -7.169837 -0.410110 -1.189938 3.338216 0.156640 0.143160 0.663280 -2.784520 -3.803954 -8.349204 4.644311 -2.541872 31.180044 0.859855 -1.855218 18.689664 3.764012 6.432734 -7.133263 8.698323 -4.216009 47.876919 -7.896890 1.938990 -33.379800 -14.871388 -7.999233 1.743534 23.503253 12.421548 3.542166 8.736755 -10.742715 -1.355085 -3.779885 2.995618 1.205910 -0.076620 0.550930 0.013070 8.978253 2.905332 2.132295 -16.188485 -12.058309 -0.653022 -1.967311 34.290399 0.787684 1.957806 -1.438275 -0.305110 0.379430 0.362030 -0.272310 
0.721980 18.064530 -1.362020 -0.372850 12.267201 -3.157438 -15.722261 13.486251 3.018948 -6.218013 -2.094185 -9.044934 -5.012497 6.910800 27.063019 -0.847112 5.853221 2.363009 0.330880 0.051010 0.365420 17.893710 -8.687893 4.216239 -1.125817 5.332410 -37.731710 7.278850 -1.242028 -9.285221 -0.420293 -1.261857 3.345232 0.110020 0.176500 0.630390 -2.394628 -4.508317 -8.419596 1.451196 -1.514297 34.265434 1.941238 -1.453733 18.206026 3.325721 6.285364 -7.184509 8.071155 -4.091857 46.288013 -6.578730 1.842810 -34.576690 -15.900680 -8.878111 1.896209 25.742489 14.724279 4.207327 7.053472 -9.113204 -1.287672 -3.714808 2.991782 1.244720 -0.091820 0.531430 0.006570 10.560394 4.473935 2.483159 -17.923632 -12.321056 -0.642302 -4.415557 30.864930 0.408173 1.977410 -1.344735 -0.352900 0.418690 0.393470 -0.278890 
0.749310 17.886920 -1.402820 0.402301 11.836963 -3.303079 -15.828885 13.543013 3.159808 -7.403402 -2.735861 -9.987364 -5.309301 7.456781 29.982041 -0.743705 6.302610 2.218929 0.255330 -0.023230 0.314480 17.808886 -8.484194 4.170788 -0.927657 5.270662 -37.928421 6.980919 -1.241554 -9.608607 -0.376486 -1.253848 3.389288 0.073150 0.219640 0.611140 -2.096066 -5.021755 -8.461875 -0.446441 -0.206192 36.286144 3.483350 -0.613310 17.237359 3.187976 6.557163 -7.236437 8.387989 -4.311947 43.753484 -7.507800 1.956050 -33.958540 -16.551109 -9.174006 1.863484 26.119431 14.700697 4.224659 6.838946 -8.455504 -1.261287 -3.756532 2.950699 1.223590 -0.052190 0.489920 -0.005170 11.134035 5.162923 2.959898 -18.456421 -13.473888 -0.390606 -6.571213 28.087112 0.121988 1.981018 -1.288188 -0.386730 0.433050 0.424140 -0.280200 
0.795260 17.735550 -1.422900 1.310335 11.652352 -3.026279 -15.851673 13.436758 3.353766 -8.672050 -3.630119 -11.202380 -6.265565 8.257421 32.951923 -0.522550 6.730093 2.086523 0.225090 -0.065350 0.329500 17.796669 -8.444374 4.114292 -1.237087 5.197304 -39.127416 7.454160 -1.492076 -7.348956 -0.361681 -1.113648 3.462606 -0.006390 0.184720 0.603520 -2.033708 -5.018255 -8.520480 -1.432898 0.760324 37.159990 4.011965 -0.098292 16.491604 2.976317 7.741643 -8.808050 10.779579 -4.891613 44.999549 -7.676740 3.073630 -33.533940 -15.986318 -10.381975 2.906893 24.860442 15.577560 3.839189 7.337859 -9.494757 -1.130445 -3.728068 2.922027 1.229550 -0.079700 0.518710 -0.000500 10.697834 5.606141 4.498069 -14.316376 -13.451418 -1.439034 -12.477651 24.564720 -0.558633 2.042969 -1.118610 -0.358920 0.384040 0.377580 -0.277280 
0.830340 17.650310 -1.435900 2.045833 12.041203 -4.243756 -15.890021 13.562317 3.551942 -9.113452 -4.185159 -10.893308 -7.583469 9.198816 34.943103 -0.342820 7.261913 1.940499 0.089970 -0.229170 0.250700 17.741860 -8.475246 3.906446 -1.418418 4.731223 -38.694368 7.455784 -2.028555 -3.365112 -0.302783 -0.978069 3.548294 -0.125280 0.222540 0.574600 -1.903398 -5.369808 -8.511611 -2.576222 1.332683 40.681127 4.621984 0.091327 15.531383 2.750334 7.451268 -9.856450 10.086092 -4.713215 44.302945 -7.237370 3.231160 -34.243690 -15.707803 -11.161328 3.955386 22.293247 16.589526 3.225101 9.796834 -11.578835 -1.181464 -3.781491 2.827592 1.258080 -0.091260 0.492550 -0.028640 10.490535 6.914797 5.510409 -12.624649 -14.824445 -2.116456 -13.686788 25.310249 -0.654981 2.061645 -1.012158 -0.399240 0.398530 0.435970 -0.277050 
0.865770 17.570850 -1.418460 2.319626 13.157546 -3.348675 -15.911067 13.491898 3.704061 -9.777503 -5.053496 -12.385791 -7.663695 9.437352 36.893562 -0.220717 7.469766 1.856051 0.069330 -0.229780 0.211640 17.726841 -8.493757 3.850461 -1.079357 4.845521 -40.070437 7.099618 -2.464447 0.508349 -0.286461 -0.888051 3.589380 -0.166120 0.202820 0.610890 -1.850511 -5.337307 -8.523930 -2.541459 1.818882 40.392301 5.549620 0.486388 14.268348 2.738423 8.590741 -10.729860 12.258308 -6.020509 44.542530 -7.837210 3.121380 -34.224590 -15.260772 -11.857424 4.538064 18.459194 13.265266 1.536839 15.276105 -13.630476 -1.664221 -3.874264 2.773150 1.237120 -0.085670 0.518770 -0.020660 9.996174 6.868600 6.301379 -7.609737 -15.891671 -3.745413 -19.465199 27.274473 -1.917973 2.047420 -0.987636 -0.345270 0.341360 0.427400 -0.253940 
